<svg width="682" height="102" viewBox="0 0 682 102" fill="none" xmlns="http://www.w3.org/2000/svg">
<g clip-path="url(#clip0_822_57)">
<path d="M137.25 100C135.333 97.75 133.792 95.0417 132.625 91.875C131.542 88.7083 131 83.9583 131 77.625V39.25H120.75V25H131.25V6.25H151.125V25H163.25V39.25H151.125V75.5C151.125 82.0833 151.875 87.125 153.375 90.625C154.875 94.125 156.667 97 158.75 99.25V100H137.25ZM176.201 100V-2.98023e-06H196.451V34H199.451C201.118 30.8333 203.41 28.25 206.326 26.25C209.326 24.1667 213.451 23.125 218.701 23.125C227.035 23.125 233.285 25.75 237.451 31C241.618 36.25 243.701 43.375 243.701 52.375V100H223.451V55.75C223.451 50.5833 222.535 46.625 220.701 43.875C218.868 41.0417 215.868 39.625 211.701 39.625C206.868 39.625 203.118 41.5417 200.451 45.375C197.785 49.125 196.451 53.8333 196.451 59.5V100H176.201ZM293.162 101.875C280.745 101.875 271.454 98.3333 265.287 91.25C259.204 84.0833 256.162 74.5 256.162 62.5C256.162 50.5 259.204 40.9583 265.287 33.875C271.454 26.7083 280.745 23.125 293.162 23.125C305.579 23.125 314.829 26.7083 320.912 33.875C327.079 40.9583 330.162 50.5 330.162 62.5C330.162 74.5 327.079 84.0833 320.912 91.25C314.829 98.3333 305.579 101.875 293.162 101.875ZM293.162 88.375C298.662 88.375 302.704 86.2083 305.287 81.875C307.87 77.5417 309.162 71.0417 309.162 62.375C309.162 53.7917 307.87 47.375 305.287 43.125C302.704 38.7917 298.662 36.625 293.162 36.625C287.662 36.625 283.62 38.7917 281.037 43.125C278.454 47.375 277.162 53.7917 277.162 62.375C277.162 71.0417 278.454 77.5417 281.037 81.875C283.62 86.2083 287.662 88.375 293.162 88.375ZM343.633 100V25H362.383V36.25H365.383C366.883 32.5 369.174 29.375 372.258 26.875C375.424 24.375 380.049 23.125 386.133 23.125C394.466 23.125 400.716 25.75 404.883 31C409.049 36.25 411.133 43.375 411.133 52.375V100H390.883V55.75C390.883 50.5833 389.966 46.625 388.133 43.875C386.299 41.0417 383.299 39.625 379.133 39.625C374.299 39.625 370.549 41.5417 367.883 45.375C365.216 49.125 363.883 53.8333 363.883 59.5V100H343.633ZM435.594 100C433.76 97.75 432.26 95.0417 431.094 91.875C430.01 88.7083 429.469 83.9583 429.469 77.625V-2.98023e-06H442.969V75.875C442.969 82.5417 443.677 87.5417 445.094 90.875C446.594 94.2083 448.385 97 450.469 99.25V100H435.594ZM490.229 101.875C483.812 101.875 478.354 100.25 473.854 97C469.354 93.75 465.895 89.2083 463.479 83.375C461.145 77.4583 459.979 70.5 459.979 62.5C459.979 54.5 461.145 47.5833 463.479 41.75C465.895 35.8333 469.354 31.25 473.854 28C478.437 24.75 483.979 23.125 490.479 23.125C496.145 23.125 500.645 24.3333 503.979 26.75C507.395 29.0833 509.77 31.75 511.104 34.75H514.104V25H526.104V100H514.104V90.25H511.104C509.77 93.25 507.395 95.9583 503.979 98.375C500.562 100.708 495.979 101.875 490.229 101.875ZM492.604 90.625C498.854 90.625 503.812 88.0417 507.479 82.875C511.145 77.7083 512.979 70.9167 512.979 62.5C512.979 54.0833 511.145 47.2917 507.479 42.125C503.812 36.9583 498.854 34.375 492.604 34.375C486.52 34.375 481.854 36.8333 478.604 41.75C475.354 46.6667 473.729 53.5833 473.729 62.5C473.729 71.4167 475.354 78.3333 478.604 83.25C481.854 88.1667 486.52 90.625 492.604 90.625ZM583.449 101.875C577.699 101.875 573.116 100.708 569.699 98.375C566.283 95.9583 563.908 93.25 562.574 90.25H559.574V100H547.574V-2.98023e-06H561.074V34H564.074C565.741 30.75 568.158 28.125 571.324 26.125C574.491 24.125 578.616 23.125 583.699 23.125C590.033 23.125 595.408 24.75 599.824 28C604.324 31.25 607.741 35.8333 610.074 41.75C612.491 47.5833 613.699 54.5 613.699 62.5C613.699 70.5 612.491 77.4583 610.074 83.375C607.741 89.2083 604.324 93.75 599.824 97C595.324 100.25 589.866 101.875 583.449 101.875ZM581.074 90.625C587.158 90.625 591.824 88.1667 595.074 83.25C598.324 78.3333 599.949 71.4167 599.949 62.5C599.949 53.5833 598.324 46.6667 595.074 41.75C591.824 36.8333 587.158 34.375 581.074 34.375C574.824 34.375 569.866 36.9583 566.199 42.125C562.533 47.2917 560.699 54.0833 560.699 62.5C560.699 70.9167 562.533 77.7083 566.199 82.875C569.866 88.0417 574.824 90.625 581.074 90.625ZM654.545 101.875C647.628 101.875 641.92 100.667 637.42 98.25C632.92 95.75 629.545 92.5417 627.295 88.625C625.045 84.625 623.795 80.4167 623.545 76H636.795C637.045 78.5 637.837 80.9583 639.17 83.375C640.503 85.7083 642.462 87.625 645.045 89.125C647.628 90.625 650.92 91.375 654.92 91.375C659.337 91.375 662.753 90.4583 665.17 88.625C667.587 86.7083 668.795 84.2083 668.795 81.125C668.795 78.4583 667.837 76.2083 665.92 74.375C664.087 72.4583 661.212 70.7917 657.295 69.375L648.42 66.25C644.42 64.75 640.795 63.125 637.545 61.375C634.378 59.5417 631.837 57.2917 629.92 54.625C628.003 51.875 627.045 48.4167 627.045 44.25C627.045 37.8333 629.337 32.7083 633.92 28.875C638.503 25.0417 644.795 23.125 652.795 23.125C658.545 23.125 663.295 24.125 667.045 26.125C670.878 28.125 673.795 30.875 675.795 34.375C677.795 37.7917 678.962 41.6667 679.295 46H666.545C666.212 42.8333 664.962 40 662.795 37.5C660.628 34.9167 657.087 33.625 652.17 33.625C648.253 33.625 645.253 34.5 643.17 36.25C641.087 37.9167 640.045 40.2083 640.045 43.125C640.045 45.9583 641.045 48.2917 643.045 50.125C645.045 51.9583 648.045 53.625 652.045 55.125L660.92 58.125C664.92 59.625 668.503 61.2917 671.67 63.125C674.837 64.875 677.295 67.0833 679.045 69.75C680.878 72.4167 681.795 75.8333 681.795 80C681.795 86.4167 679.462 91.6667 674.795 95.75C670.128 99.8333 663.378 101.875 654.545 101.875Z" fill="white"/>
<g clip-path="url(#clip1_822_57)">
<path d="M-1 12.75C-1 9.36849 0.3433 6.12548 2.73439 3.73439C5.12548 1.3433 8.36849 0 11.75 0L62.75 0C66.1315 0 69.3745 1.3433 71.7656 3.73439C74.1567 6.12548 75.5 9.36849 75.5 12.75V25.5H88.25C91.6315 25.5 94.8745 26.8433 97.2656 29.2344C99.6567 31.6255 101 34.8685 101 38.25V89.25C101 92.6315 99.6567 95.8745 97.2656 98.2656C94.8745 100.657 91.6315 102 88.25 102H37.25C33.8685 102 30.6255 100.657 28.2344 98.2656C25.8433 95.8745 24.5 92.6315 24.5 89.25V76.5H11.75C8.36849 76.5 5.12548 75.1567 2.73439 72.7656C0.3433 70.3745 -1 67.1315 -1 63.75V12.75ZM75.5 25.5H30.875C29.1842 25.5 27.5627 26.1717 26.3672 27.3672C25.1717 28.5627 24.5 30.1842 24.5 31.875V76.5H69.125C70.8158 76.5 72.4373 75.8283 73.6328 74.6328C74.8283 73.4373 75.5 71.8158 75.5 70.125V25.5Z" fill="white"/>
</g>
</g>
<defs>
<clipPath id="clip0_822_57">
<rect width="682" height="102" fill="white"/>
</clipPath>
<clipPath id="clip1_822_57">
<rect width="102" height="102" fill="white" transform="translate(-1)"/>
</clipPath>
</defs>
</svg>
